PathFileType	4	(X/Y/Z)	/Users/itak/Documents/Research/Walk-IL/dataset/trc/00016_00004.trc
DataRate	CameraRate	NumFrames	NumMarkers	Units	OrigDataRate	OrigDataStartFrame	OrigNumFrames
100.000000	100.000000	4	53	mm	100.000000	0	540
Frame#	Time	RPSI			LPSI			L3			STRN			T10			C7			CLAV			RBAK			LBAK			LSHO			LUPA			LAEL			LAOL			LWTS			LWPS			LFRA			LIFD			LHPS			LHTS			RSHO			RUPA			RAEL			RAOL			RWTS			RWPS			RFRA			RIFD			RHTS			RHPS			RBHD			LFHD			RFHD			LBHD			LHIP			RHIP			RASI			LASI			LKNE			LTHI			LANK			LTIP			LTOE			LMT1			LMT5			LHEE			RKNE			RTHI			RANK			RTIP			RTOE			RMT1			RMT5			RHEE			
		X1	Y1	Z1	X2	Y2	Z2	X3	Y3	Z3	X4	Y4	Z4	X5	Y5	Z5	X6	Y6	Z6	X7	Y7	Z7	X8	Y8	Z8	X9	Y9	Z9	X10	Y10	Z10	X11	Y11	Z11	X12	Y12	Z12	X13	Y13	Z13	X14	Y14	Z14	X15	Y15	Z15	X16	Y16	Z16	X17	Y17	Z17	X18	Y18	Z18	X19	Y19	Z19	X20	Y20	Z20	X21	Y21	Z21	X22	Y22	Z22	X23	Y23	Z23	X24	Y24	Z24	X25	Y25	Z25	X26	Y26	Z26	X27	Y27	Z27	X28	Y28	Z28	X29	Y29	Z29	X30	Y30	Z30	X31	Y31	Z31	X32	Y32	Z32	X33	Y33	Z33	X34	Y34	Z34	X35	Y35	Z35	X36	Y36	Z36	X37	Y37	Z37	X38	Y38	Z38	X39	Y39	Z39	X40	Y40	Z40	X41	Y41	Z41	X42	Y42	Z42	X43	Y43	Z43	X44	Y44	Z44	X45	Y45	Z45	X46	Y46	Z46	X47	Y47	Z47	X48	Y48	Z48	X49	Y49	Z49	X50	Y50	Z50	X51	Y51	Z51	X52	Y52	Z52	X53	Y53	Z53	

1	0	1021.556274414062	1056.444213867188	-237.7943420410156	1013.265808105469	1048.964599609375	-401.06982421875	1013.423950195312	1117.928100585938	-329.220703125	1238.53564453125	1311.118896484375	-331.1965637207031	985.9518432617188	1262.265625	-335.4175109863281	1035.279541015625	1530.00244140625	-351.2276611328125	1195.283813476562	1436.770141601562	-339.0901794433594	981.3516235351562	1394.17626953125	-268.4001770019531	1021.132446289062	1486.132446289062	-448.2305297851562	1126.892456054688	1489.780151367188	-518.544189453125	1095.1630859375	1365.573852539062	-596.2616577148438	1085.410400390625	1149.650390625	-623.343505859375	1028.963256835938	1137.887573242188	-534.8639526367188	1168.090454101562	895.6168212890625	-569.6928100585938	1090.994750976562	882.3251953125	-612.5971069335938	1095.436401367188	1033.591674804688	-630.6585693359375	1189.220825195312	711.1082153320312	-550.5328369140625	1122.402709960938	792.3453369140625	-612.1907348632812	1187.651489257812	801.9102172851562	-584.8118896484375	1109.634399414062	1518.580078125	-174.4456329345703	1093.308227539062	1449.647338867188	-99.88707733154297	1053.188720703125	1183.684936523438	-67.20477294921875	1055.467895507812	1150.703369140625	-161.6193542480469	1183.906616210938	924.8768310546875	-79.40837860107422	1116.820190429688	912.3038330078125	-17.35424613952637	1065.246704101562	1108.80126953125	-47.61041259765625	1205.98828125	747.7977294921875	-92.67539215087891	1220.421142578125	818.2901611328125	-55.66735076904297	1162.431030273438	814.0042114257812	-9.23193359375	1118.27294921875	1719.195068359375	-271.2972106933594	1300.695678710938	1691.338989257812	-373.8190612792969	1292.556884765625	1693.900756835938	-276.1150817871094	1125.221069335938	1721.68701171875	-415.0902099609375	1105.73291015625	949.6759033203125	-509.5797119140625	1140.4111328125	952.3642578125	-141.0382537841797	1239.82763671875	985.7269897460938	-216.9289703369141	1224.714233398438	997.86572265625	-452.6216735839844	1143.02587890625	504.6704406738281	-459.4095764160156	1119.27783203125	641.033203125	-493.7456359863281	1038.013671875	28.18221664428711	-451.5816040039062	1057.320922851562	275.1495361328125	-471.6580200195312	1262.481323242188	24.86298370361328	-397.6752014160156	1203.495849609375	34.1739387512207	-378.3601379394531	1161.276000976562	25.82229042053223	-476.25830078125	972.4229736328125	34.92914199829102	-394.6846618652344	1153.70263671875	515.8093872070312	-186.1331329345703	1166.697875976562	783.5006713867188	-139.4922485351562	1042.660400390625	34.08762359619141	-202.3189849853516	1129.552368164062	393.1606750488281	-186.1950073242188	1272.035522460938	28.77731895446777	-258.644775390625	1206.742309570312	35.36829376220703	-284.4425964355469	1192.793701171875	27.74546241760254	-187.2976531982422	983.8521118164062	35.75614547729492	-243.0671081542969	
2	0.01	1021.448669433594	1056.573486328125	-237.8785858154297	1012.9921875	1049.046264648438	-401.1624450683594	1013.417846679688	1117.962280273438	-329.3155822753906	1238.500854492188	1311.119262695312	-331.2116394042969	985.8993530273438	1262.3603515625	-335.5109252929688	1035.289306640625	1530.058471679688	-351.2660217285156	1195.259399414062	1436.758178710938	-339.1019287109375	981.2946166992188	1394.250244140625	-268.5046997070312	1021.151123046875	1486.179809570312	-448.2764587402344	1126.928466796875	1489.804809570312	-518.56787109375	1095.215942382812	1365.617553710938	-596.305419921875	1085.426879882812	1149.68212890625	-623.3722534179688	1028.921630859375	1137.919555664062	-534.9029541015625	1168.121704101562	895.6864624023438	-569.7123413085938	1091.006591796875	882.35205078125	-612.5975952148438	1095.460327148438	1033.62255859375	-630.6827392578125	1189.29443359375	711.1824340820312	-550.5507202148438	1122.419921875	792.3814697265625	-612.1818237304688	1187.65234375	801.9242553710938	-584.760986328125	1109.61328125	1518.59814453125	-174.4707183837891	1093.252197265625	1449.661865234375	-99.91808319091797	1053.14111328125	1183.694946289062	-67.2293701171875	1055.324951171875	1150.72216796875	-161.6633758544922	1183.844482421875	924.9248046875	-79.54926300048828	1116.869995117188	912.3215942382812	-17.41059112548828	1065.20263671875	1108.806762695312	-47.64767837524414	1206.0263671875	747.873779296875	-92.85288238525391	1220.55322265625	818.3888549804688	-55.85851287841797	1162.448852539062	814.0149536132812	-9.373769760131836	1118.006225585938	1719.142700195312	-271.2716369628906	1300.595336914062	1691.644775390625	-373.8692626953125	1292.342407226562	1694.117309570312	-276.0375366210938	1125.056640625	1721.689331054688	-415.0914611816406	1105.615844726562	949.7412719726562	-509.5578308105469	1139.897338867188	952.4224853515625	-141.0425109863281	1239.462036132812	985.613037109375	-216.8479309082031	1224.473876953125	997.7230834960938	-452.5322570800781	1142.745239257812	504.6636657714844	-459.4631958007812	1118.934936523438	641.0513916015625	-493.7804260253906	1037.995849609375	28.15544319152832	-451.5957641601562	1057.146728515625	275.1381225585938	-471.6641235351562	1262.486328125	24.91716957092285	-397.6955871582031	1203.469360351562	34.11064529418945	-378.513427734375	1161.265380859375	25.81695938110352	-476.2904968261719	972.4028930664062	34.9196891784668	-394.7022399902344	1153.171630859375	515.8696899414062	-186.1022033691406	1166.250122070312	783.5780639648438	-139.3537902832031	1042.644409179688	34.05047988891602	-202.2828674316406	1129.208618164062	393.2602844238281	-186.0889892578125	1272.008666992188	28.81055450439453	-258.650634765625	1206.695678710938	35.40218734741211	-284.3991088867188	1192.776123046875	27.74797821044922	-187.2881011962891	983.85595703125	35.71657943725586	-243.0439147949219	
3	0.02	1021.297668457031	1056.74951171875	-237.9893188476562	1012.694641113281	1049.147216796875	-401.2718811035156	1013.406188964844	1118.001708984375	-329.4352722167969	1238.451904296875	1311.108154296875	-331.2233581542969	985.8262329101562	1262.4697265625	-335.6290283203125	1035.301147460938	1530.1220703125	-351.3075866699219	1195.226806640625	1436.743530273438	-339.12109375	981.2372436523438	1394.335205078125	-268.626953125	1021.168823242188	1486.234619140625	-448.3311462402344	1126.9697265625	1489.838256835938	-518.600830078125	1095.268188476562	1365.66943359375	-596.3599243164062	1085.443115234375	1149.724243164062	-623.4071655273438	1028.869995117188	1137.959838867188	-534.9510498046875	1168.151123046875	895.7683715820312	-569.7346801757812	1091.015380859375	882.387451171875	-612.5982055664062	1095.479858398438	1033.66162109375	-630.7103271484375	1189.371215820312	711.2654418945312	-550.5715942382812	1122.43505859375	792.4267578125	-612.1700439453125	1187.647094726562	801.9407348632812	-584.6971435546875	1109.586181640625	1518.619873046875	-174.4999847412109	1093.189575195312	1449.677124023438	-99.95467376708984	1053.089599609375	1183.703491210938	-67.26460266113281	1055.1611328125	1150.739135742188	-161.7244873046875	1183.76416015625	924.97412109375	-79.73523712158203	1116.919067382812	912.3363037109375	-17.49211502075195	1065.154541015625	1108.808959960938	-47.70195388793945	1206.0576171875	747.95654296875	-93.08311462402344	1220.706420898438	818.5274658203125	-56.12557983398438	1162.461181640625	814.0181274414062	-9.551630020141602	1117.67822265625	1719.076171875	-271.2474060058594	1300.459106445312	1692.020751953125	-373.9132385253906	1292.0791015625	1694.3916015625	-275.945068359375	1124.848266601562	1721.682006835938	-415.0936584472656	1105.454956054688	949.8069458007812	-509.5289916992188	1139.297607421875	952.4917602539062	-141.0355224609375	1239.006713867188	985.4580688476562	-216.7201690673828	1224.1767578125	997.5469360351562	-452.4222717285156	1142.383056640625	504.6569519042969	-459.5321960449219	1118.50830078125	641.072021484375	-493.8329772949219	1037.973022460938	28.12115287780762	-451.6128845214844	1056.907348632812	275.125	-471.6688842773438	1262.488159179688	24.97762298583984	-397.72216796875	1203.504272460938	34.24406051635742	-378.479248046875	1161.25341796875	25.80700874328613	-476.3330688476562	972.3789672851562	34.91065216064453	-394.7230834960938	1152.54931640625	515.9584350585938	-186.0533447265625	1165.677612304688	783.6651611328125	-139.1950836181641	1042.616455078125	33.9981575012207	-202.2319641113281	1128.815795898438	393.3684692382812	-185.9832153320312	1271.95654296875	28.88420867919922	-258.6534118652344	1206.62158203125	35.45382690429688	-284.3450927734375	1192.747192382812	27.75606727600098	-187.2772827148438	983.8491821289062	35.65619277954102	-243.0110626220703	
4	0.03	1021.094665527344	1056.970092773438	-238.1251983642578	1012.402221679688	1049.263549804688	-401.3914184570312	1013.383850097656	1118.043579101562	-329.5750732421875	1238.387817382812	1311.080810546875	-331.2283020019531	985.7345581054688	1262.585205078125	-335.7653198242188	1035.314086914062	1530.187744140625	-351.3476867675781	1195.186401367188	1436.72705078125	-339.1486206054688	981.1863403320312	1394.423095703125	-268.7566833496094	1021.18212890625	1486.29248046875	-448.3903198242188	1127.011108398438	1489.880493164062	-518.6424560546875	1095.310668945312	1365.7265625	-596.4229125976562	1085.455444335938	1149.775756835938	-623.4459228515625	1028.810668945312	1138.006469726562	-535.0055541992188	1168.170654296875	895.8512573242188	-569.7548217773438	1091.017456054688	882.4305419921875	-612.5986328125	1095.489135742188	1033.707397460938	-630.7391967773438	1189.441772460938	711.3494262695312	-550.5957641601562	1122.444091796875	792.4789428710938	-612.155517578125	1187.631958007812	801.956787109375	-584.6233520507812	1109.554565429688	1518.643798828125	-174.5312805175781	1093.126831054688	1449.691162109375	-99.99422454833984	1053.040771484375	1183.708129882812	-67.31154632568359	1054.988647460938	1150.752197265625	-161.8025360107422	1183.668090820312	925.0155639648438	-79.96012878417969	1116.958374023438	912.343505859375	-17.60077857971191	1065.108642578125	1108.806274414062	-47.77468109130859	1206.069458007812	748.0333251953125	-93.3572998046875	1220.85888671875	818.6967163085938	-56.46118927001953	1162.4638671875	814.0083618164062	-9.756950378417969	1117.307373046875	1718.998168945312	-271.2293090820312	1300.287475585938	1692.446044921875	-373.9399719238281	1291.781616210938	1694.713500976562	-275.8445129394531	1124.604248046875	1721.66015625	-415.0968017578125	1105.245483398438	949.8569946289062	-509.4977416992188	1138.6533203125	952.56689453125	-141.0136108398438	1238.4833984375	985.2708740234375	-216.5461578369141	1223.840454101562	997.344970703125	-452.296142578125	1141.953857421875	504.6503295898438	-459.6138916015625	1118.017700195312	641.09228515625	-493.906005859375	1037.947021484375	28.08052062988281	-451.6317443847656	1056.604736328125	275.111328125	-471.6710205078125	1262.485717773438	25.03804779052734	-397.7540893554688	1203.585205078125	34.52347183227539	-378.3059997558594	1161.240966796875	25.79166221618652	-476.3848266601562	972.3526611328125	34.90270233154297	-394.7459716796875	1151.891357421875	516.07470703125	-185.9903411865234	1164.995849609375	783.7557983398438	-139.026123046875	1042.575439453125	33.93050384521484	-202.1654205322266	1128.417846679688	393.4711303710938	-185.8948516845703	1271.869995117188	29.01610565185547	-258.6484680175781	1206.513916015625	35.52599716186523	-284.283447265625	1192.701416015625	27.77427101135254	-187.2651824951172	983.8241577148438	35.5706901550293	-242.9684448242188	
